<svg width="37" height="37" viewBox="0 0 37 37" fill="none" xmlns="http://www.w3.org/2000/svg">
<circle cx="18.5" cy="18.5" r="17" stroke="#FF5252" stroke-width="3"/>
<path d="M10.6248 10.6238C10.7697 10.4787 10.9419 10.3636 11.1313 10.285C11.3208 10.2065 11.5239 10.166 11.729 10.166C11.9341 10.166 12.1372 10.2065 12.3266 10.285C12.5161 10.3636 12.6882 10.4787 12.8331 10.6238L18.4998 16.2884L24.1665 10.6238C24.3115 10.4788 24.4836 10.3638 24.6731 10.2853C24.8625 10.2069 25.0656 10.1665 25.2706 10.1665C25.4757 10.1665 25.6788 10.2069 25.8682 10.2853C26.0577 10.3638 26.2298 10.4788 26.3748 10.6238C26.5198 10.7688 26.6348 10.941 26.7133 11.1304C26.7918 11.3199 26.8322 11.5229 26.8322 11.728C26.8322 11.9331 26.7918 12.1361 26.7133 12.3256C26.6348 12.515 26.5198 12.6872 26.3748 12.8322L20.7102 18.4988L26.3748 24.1655C26.6677 24.4583 26.8322 24.8555 26.8322 25.2697C26.8322 25.6838 26.6677 26.081 26.3748 26.3738C26.082 26.6667 25.6848 26.8312 25.2706 26.8312C24.8565 26.8312 24.4593 26.6667 24.1665 26.3738L18.4998 20.7093L12.8331 26.3738C12.5403 26.6667 12.1431 26.8312 11.729 26.8312C11.3148 26.8312 10.9177 26.6667 10.6248 26.3738C10.332 26.081 10.1675 25.6838 10.1675 25.2697C10.1675 24.8555 10.332 24.4583 10.6248 24.1655L16.2894 18.4988L10.6248 12.8322C10.4797 12.6872 10.3645 12.5151 10.286 12.3257C10.2074 12.1362 10.167 11.9331 10.167 11.728C10.167 11.5229 10.2074 11.3198 10.286 11.1303C10.3645 10.9409 10.4797 10.7688 10.6248 10.6238Z" fill="#FF5252"/>
</svg>
