<svg
    width="35"
    height="43"
    viewBox="0 0 35 43"
    fill="#f2a42e"
    xmlns="http://www.w3.org/2000/svg"
>
    <path
        d="M29.1172 22.2022C30.4527 22.2022 31.7335 22.7301 32.6778 23.6699C33.6222 24.6096 34.1527 25.8841 34.1527 27.2131V28.8834C34.1527 35.4677 27.9087 42.2458 17.3678 42.2458C6.82687 42.2458 0.582886 35.4677 0.582886 28.8834V27.2131C0.582886 25.8841 1.11341 24.6096 2.05774 23.6699C3.00207 22.7301 4.28287 22.2022 5.61836 22.2022H29.1172ZM29.1172 25.5428H5.61836C5.17319 25.5428 4.74626 25.7188 4.43148 26.032C4.11671 26.3453 3.93987 26.7701 3.93987 27.2131V28.8834C3.93987 33.6872 8.74706 38.9052 17.3678 38.9052C25.9885 38.9052 30.7957 33.6872 30.7957 28.8834V27.2131C30.7957 26.7701 30.6189 26.3453 30.3041 26.032C29.9893 25.7188 29.5624 25.5428 29.1172 25.5428ZM17.3678 0.488281C19.8162 0.488281 22.1643 1.45616 23.8956 3.17899C25.6269 4.90183 26.5995 7.23849 26.5995 9.67494C26.5995 12.1114 25.6269 14.4481 23.8956 16.1709C22.1643 17.8937 19.8162 18.8616 17.3678 18.8616C14.9194 18.8616 12.5713 17.8937 10.84 16.1709C9.10871 14.4481 8.13609 12.1114 8.13609 9.67494C8.13609 7.23849 9.10871 4.90183 10.84 3.17899C12.5713 1.45616 14.9194 0.488281 17.3678 0.488281ZM17.3678 3.82889C15.8097 3.82889 14.3155 4.44481 13.2137 5.54116C12.112 6.63751 11.4931 8.12447 11.4931 9.67494C11.4931 11.2254 12.112 12.7124 13.2137 13.8087C14.3155 14.9051 15.8097 15.521 17.3678 15.521C18.9259 15.521 20.4201 14.9051 21.5218 13.8087C22.6236 12.7124 23.2425 11.2254 23.2425 9.67494C23.2425 8.12447 22.6236 6.63751 21.5218 5.54116C20.4201 4.44481 18.9259 3.82889 17.3678 3.82889Z"/>
</svg>