<svg viewBox="0 0 130 131" fill="none" xmlns="http://www.w3.org/2000/svg">
  <g>
    <rect x="8.46289" y="7.46289" rx="56.4955"/>
    <path d="M82.1528 56.1802L85.3768 59.0459L90.75 53.3145" stroke="#44A7AD" stroke-width="2.86571" stroke-linecap="round" stroke-linejoin="round"/>
    <path d="M77.1173 65.2022C78.4528 65.2022 79.7336 65.7301 80.678 66.6699C81.6223 67.6096 82.1528 68.8841 82.1528 70.2131V71.8834C82.1528 78.4677 75.9088 85.2458 65.3679 85.2458C54.827 85.2458 48.583 78.4677 48.583 71.8834V70.2131C48.583 68.8841 49.1135 67.6096 50.0579 66.6699C51.0022 65.7301 52.283 65.2022 53.6185 65.2022H77.1173ZM77.1173 68.5428H53.6185C53.1733 68.5428 52.7464 68.7188 52.4316 69.032C52.1168 69.3453 51.94 69.7701 51.94 70.2131V71.8834C51.94 76.6872 56.7472 81.9052 65.3679 81.9052C73.9886 81.9052 78.7958 76.6872 78.7958 71.8834V70.2131C78.7958 69.7701 78.619 69.3453 78.3042 69.032C77.9894 68.7188 77.5625 68.5428 77.1173 68.5428ZM65.3679 43.4883C67.8163 43.4883 70.1644 44.4562 71.8957 46.179C73.627 47.9018 74.5996 50.2385 74.5996 52.6749C74.5996 55.1114 73.627 57.4481 71.8957 59.1709C70.1644 60.8937 67.8163 61.8616 65.3679 61.8616C62.9195 61.8616 60.5714 60.8937 58.8401 59.1709C57.1088 57.4481 56.1362 55.1114 56.1362 52.6749C56.1362 50.2385 57.1088 47.9018 58.8401 46.179C60.5714 44.4562 62.9195 43.4883 65.3679 43.4883ZM65.3679 46.8289C63.8098 46.8289 62.3156 47.4448 61.2139 48.5412C60.1121 49.6375 59.4932 51.1245 59.4932 52.6749C59.4932 54.2254 60.1121 55.7124 61.2139 56.8087C62.3156 57.9051 63.8098 58.521 65.3679 58.521C66.926 58.521 68.4202 57.9051 69.522 56.8087C70.6237 55.7124 71.2426 54.2254 71.2426 52.6749C71.2426 51.1245 70.6237 49.6375 69.522 48.5412C68.4202 47.4448 66.926 46.8289 65.3679 46.8289Z" fill="#44A7AD"/>
    <rect x="13.3755" y="12.3755" width="103.166" height="103.166" rx="51.5828" stroke="url(#paint1_linear_3423_298019)" stroke-width="9.82531"/>
  </g>
</svg>